<svg width="95" height="95" viewBox="0 0 95 95" fill="none" xmlns="http://www.w3.org/2000/svg">
<path d="M47.5 81.1458C47.5 82.7205 46.8744 84.2307 45.7609 85.3442C44.6474 86.4577 43.1372 87.0833 41.5625 87.0833C39.9878 87.0833 38.4775 86.4577 37.3641 85.3442C36.2506 84.2307 35.625 82.7205 35.625 81.1458C35.625 79.571 36.2506 78.0608 37.3641 76.9473C38.4775 75.8338 39.9878 75.2083 41.5625 75.2083C43.1372 75.2083 44.6474 75.8338 45.7609 76.9473C46.8744 78.0608 47.5 79.571 47.5 81.1458Z" fill="#51E0A4"/>
<path d="M67.2917 81.1458C67.2917 82.7205 66.6661 84.2307 65.5526 85.3442C64.4391 86.4577 62.9289 87.0833 61.3542 87.0833C59.7794 87.0833 58.2692 86.4577 57.1557 85.3442C56.0422 84.2307 55.4167 82.7205 55.4167 81.1458C55.4167 79.571 56.0422 78.0608 57.1557 76.9473C58.2692 75.8338 59.7794 75.2083 61.3542 75.2083C62.9289 75.2083 64.4391 75.8338 65.5526 76.9473C66.6661 78.0608 67.2917 79.571 67.2917 81.1458Z" fill="#51E0A4"/>
<path d="M87.0833 81.1458C87.0833 82.7205 86.4578 84.2307 85.3443 85.3442C84.2308 86.4577 82.7206 87.0833 81.1458 87.0833C79.5711 87.0833 78.0609 86.4577 76.9474 85.3442C75.8339 84.2307 75.2083 82.7205 75.2083 81.1458C75.2083 79.571 75.8339 78.0608 76.9474 76.9473C78.0609 75.8338 79.5711 75.2083 81.1458 75.2083C82.7206 75.2083 84.2308 75.8338 85.3443 76.9473C86.4578 78.0608 87.0833 79.571 87.0833 81.1458Z" fill="#51E0A4"/>
<path d="M59.0069 71.5272L54.3915 60.2657H23.2948L16.1698 77.8803C15.869 78.6324 15.4375 79.2657 14.8438 79.7011C14.241 80.14 13.5111 80.3694 12.7656 80.3542C11.7206 80.3542 10.7865 80.093 10.1254 79.428C9.51082 78.785 9.1495 77.9415 9.10813 77.053L9.10417 77.0213V76.6928C9.10417 76.2732 9.13584 75.8734 9.24271 75.5528L9.25855 75.5013L35.3835 11.5822C35.6601 10.8324 36.1603 10.1857 36.8165 9.72966C37.4696 9.29425 38.2415 9.10425 39.0885 9.10425C39.9 9.10425 40.6323 9.34571 41.2379 9.84841C41.8831 10.264 42.366 10.838 42.6827 11.5505L42.6906 11.5742L68.2377 74.0368C67.0383 72.8698 65.5617 72.0272 63.9469 71.5881C62.332 71.1491 60.6321 71.1281 59.0069 71.5272V71.5272ZM26.2042 52.8438H51.3633L38.6967 21.8936L26.2042 52.8438Z" fill="#F09C38"/>
</svg>
