<svg width="95" height="95" viewBox="0 0 95 95" fill="none" xmlns="http://www.w3.org/2000/svg">
<path d="M68.2813 43.0469H56.4063C55.6189 43.0469 54.8638 42.7341 54.3071 42.1774C53.7503 41.6206 53.4375 40.8655 53.4375 40.0782C53.4375 39.2908 53.7503 38.5357 54.3071 37.979C54.8638 37.4222 55.6189 37.1094 56.4063 37.1094H68.2813C69.0687 37.1094 69.8238 37.4222 70.3805 37.979C70.9373 38.5357 71.25 39.2908 71.25 40.0782C71.25 40.8655 70.9373 41.6206 70.3805 42.1774C69.8238 42.7341 69.0687 43.0469 68.2813 43.0469ZM38.5938 37.1094H35.625V34.1407C35.625 33.3533 35.3123 32.5982 34.7555 32.0415C34.1988 31.4847 33.4437 31.1719 32.6563 31.1719C31.8689 31.1719 31.1138 31.4847 30.5571 32.0415C30.0003 32.5982 29.6875 33.3533 29.6875 34.1407V37.1094H26.7188C25.9314 37.1094 25.1763 37.4222 24.6196 37.979C24.0628 38.5357 23.75 39.2908 23.75 40.0782C23.75 40.8655 24.0628 41.6206 24.6196 42.1774C25.1763 42.7341 25.9314 43.0469 26.7188 43.0469H29.6875V46.0157C29.6875 46.803 30.0003 47.5581 30.5571 48.1149C31.1138 48.6716 31.8689 48.9844 32.6563 48.9844C33.4437 48.9844 34.1988 48.6716 34.7555 48.1149C35.3123 47.5581 35.625 46.803 35.625 46.0157V43.0469H38.5938C39.3812 43.0469 40.1363 42.7341 40.693 42.1774C41.2498 41.6206 41.5625 40.8655 41.5625 40.0782C41.5625 39.2908 41.2498 38.5357 40.693 37.979C40.1363 37.4222 39.3812 37.1094 38.5938 37.1094ZM80.9935 82.9209C78.8788 83.2929 76.7056 83.1502 74.6577 82.5047C72.6098 81.8592 70.7475 80.73 69.2283 79.2126C69.1727 79.1572 69.1197 79.1 69.0695 79.0412L53.9764 62.2866L41.0438 62.3386L25.9298 79.0467C25.8806 79.1036 25.8292 79.1589 25.7755 79.2126C23.7662 81.2212 21.1689 82.537 18.3608 82.9688C15.5527 83.4006 12.6801 82.9259 10.1602 81.6138C7.64026 80.3017 5.60425 78.2204 4.34787 75.6722C3.09148 73.124 2.68016 70.2416 3.17363 67.4437L3.18291 67.3925L9.22951 36.2956C9.23322 36.2685 9.23805 36.2414 9.2425 36.2147C10.1419 31.0541 12.8359 26.3773 16.8487 23.0102C20.8615 19.643 25.935 17.8021 31.1734 17.8125L63.8259 17.7161H63.8349C69.0465 17.7234 74.0909 19.556 78.0919 22.8956C82.0929 26.2353 84.7977 30.8709 85.7364 35.9973C85.7413 36.0203 85.7487 36.0425 85.7535 36.0659L88.7872 51.7303L91.8209 67.3948L91.8302 67.4437C92.4413 70.9326 91.6436 74.5214 89.612 77.4229C87.5805 80.3244 84.481 82.3019 80.9935 82.9209ZM63.823 56.3098C65.9672 56.3108 68.0907 55.8894 70.072 55.0697C72.0534 54.2501 73.854 53.0482 75.3709 51.5327C76.8878 50.0171 78.0913 48.2177 78.9128 46.2371C79.7342 44.2564 80.1575 42.1334 80.1585 39.9891C80.1595 37.8449 79.7381 35.7214 78.9185 33.74C78.0988 31.7587 76.8969 29.9581 75.3814 28.4412C73.8659 26.9243 72.0664 25.7208 70.0858 24.8993C68.1051 24.0778 65.9821 23.6545 63.8378 23.6536L31.1819 23.75C27.3617 23.7402 23.6596 25.0732 20.7224 27.5159C17.7852 29.9587 15.7998 33.3559 15.1132 37.1139C15.105 37.1735 15.0951 37.2336 15.0835 37.2942L9.01613 68.4988C8.74882 70.0452 8.97855 71.6366 9.6723 73.0443C10.3661 74.452 11.4882 75.6036 12.8774 76.3336C14.2666 77.0637 15.8515 77.3346 17.4044 77.1075C18.9572 76.8805 20.3981 76.167 21.5201 75.0697L37.5195 57.3834C37.7964 57.0772 38.1342 56.8322 38.5112 56.664C38.8882 56.4957 39.2961 56.408 39.7089 56.4063L63.823 56.3098ZM85.9865 68.4976L82.7387 51.7272C80.7418 54.9429 77.9581 57.5966 74.6505 59.4374C71.3429 61.2782 67.6206 62.2454 63.8352 62.2477L61.9389 62.2551L73.4844 75.0712C74.6066 76.1683 76.0476 76.8815 77.6005 77.1083C79.1534 77.3351 80.7383 77.0638 82.1273 76.3334C83.5164 75.6031 84.6382 74.4512 85.3316 73.0433C86.025 71.6354 86.2543 70.044 85.9865 68.4976Z" fill="black"/>
</svg>
