<svg width="531" height="542" viewBox="0 0 531 542" fill="none">
<rect x="168.93" y="70.7778" width="148" height="148" rx="50" transform="rotate(45 168.93 70.7778)" fill="#F09C38"/>
<rect x="157.616" y="268.768" width="148" height="148" rx="50" transform="rotate(45 157.616 268.768)" fill="white"/>
<rect x="366.92" y="59.4642" width="148" height="148" rx="50" transform="rotate(45 366.92 59.4642)" fill="white"/>
<rect x="352.07" y="253.919" width="148" height="148" rx="50" transform="rotate(45 352.07 253.919)" fill="#F09C38"/>
<circle cx="260.146" cy="267.354" r="46.5" transform="rotate(45 260.146 267.354)" fill="#51E0A4"/>
<circle cx="465.207" cy="263.111" r="46.5" transform="rotate(45 465.207 263.111)" fill="#51E0A4"/>
<circle cx="277.824" cy="65.8281" r="46.5" transform="rotate(45 277.824 65.8281)" fill="#51E0A4"/>
<circle cx="66.3992" cy="277.253" r="46.5" transform="rotate(45 66.3992 277.253)" fill="#51E0A4"/>
<circle cx="253.075" cy="475.243" r="46.5" transform="rotate(45 253.075 475.243)" fill="#51E0A4"/>
</svg>
