<svg width="232" height="31" viewBox="0 0 232 31" fill="none" xmlns="http://www.w3.org/2000/svg">
<path d="M4.91835 11.546C5.35169 10.87 5.94969 10.324 6.71235 9.908C7.47502 9.492 8.36769 9.284 9.39035 9.284C10.5864 9.284 11.6697 9.58733 12.6404 10.194C13.611 10.8007 14.3737 11.6673 14.9284 12.794C15.5004 13.9207 15.7864 15.2293 15.7864 16.72C15.7864 18.2107 15.5004 19.528 14.9284 20.672C14.3737 21.7987 13.611 22.674 12.6404 23.298C11.6697 23.9047 10.5864 24.208 9.39035 24.208C8.38502 24.208 7.49235 24 6.71235 23.584C5.94969 23.168 5.35169 22.6307 4.91835 21.972V30.916H0.472352V9.492H4.91835V11.546ZM11.2624 16.72C11.2624 15.6107 10.9504 14.744 10.3264 14.12C9.71969 13.4787 8.96569 13.158 8.06435 13.158C7.18035 13.158 6.42635 13.4787 5.80235 14.12C5.19569 14.7613 4.89235 15.6367 4.89235 16.746C4.89235 17.8553 5.19569 18.7307 5.80235 19.372C6.42635 20.0133 7.18035 20.334 8.06435 20.334C8.94835 20.334 9.70235 20.0133 10.3264 19.372C10.9504 18.7133 11.2624 17.8293 11.2624 16.72ZM22.5648 11.91C23.0848 11.1127 23.7348 10.4887 24.5148 10.038C25.2948 9.57 26.1615 9.336 27.1148 9.336V14.042H25.8928C24.7835 14.042 23.9515 14.2847 23.3968 14.77C22.8422 15.238 22.5648 16.07 22.5648 17.266V24H18.1188V9.492H22.5648V11.91ZM31.4759 7.984C30.6959 7.984 30.0546 7.75867 29.5519 7.308C29.0666 6.84 28.8239 6.268 28.8239 5.592C28.8239 4.89867 29.0666 4.32667 29.5519 3.876C30.0546 3.408 30.6959 3.174 31.4759 3.174C32.2386 3.174 32.8626 3.408 33.3479 3.876C33.8506 4.32667 34.1019 4.89867 34.1019 5.592C34.1019 6.268 33.8506 6.84 33.3479 7.308C32.8626 7.75867 32.2386 7.984 31.4759 7.984ZM33.6859 9.492V24H29.2399V9.492H33.6859ZM45.7479 9.336C47.4466 9.336 48.7986 9.89067 49.8039 11C50.8266 12.092 51.3379 13.6 51.3379 15.524V24H46.9179V16.122C46.9179 15.1513 46.6666 14.3973 46.1639 13.86C45.6612 13.3227 44.9852 13.054 44.1359 13.054C43.2866 13.054 42.6106 13.3227 42.1079 13.86C41.6052 14.3973 41.3539 15.1513 41.3539 16.122V24H36.9079V9.492H41.3539V11.416C41.8046 10.7747 42.4112 10.272 43.1739 9.908C43.9366 9.52667 44.7946 9.336 45.7479 9.336ZM62.5134 20.23V24H60.2514C58.6394 24 57.3828 23.61 56.4814 22.83C55.5801 22.0327 55.1294 20.7413 55.1294 18.956V13.184H53.3614V9.492H55.1294V5.956H59.5754V9.492H62.4874V13.184H59.5754V19.008C59.5754 19.4413 59.6794 19.7533 59.8874 19.944C60.0954 20.1347 60.4421 20.23 60.9274 20.23H62.5134ZM70.9699 29.434C69.2886 27.822 67.9799 25.742 67.0439 23.194C66.1079 20.646 65.6399 17.8987 65.6399 14.952C65.6399 11.9707 66.1253 9.18867 67.0959 6.606C68.0666 4.006 69.4446 1.89133 71.2299 0.261999H75.5979V0.678C73.7779 2.48067 72.3739 4.64733 71.3859 7.178C70.3979 9.69133 69.9039 12.2827 69.9039 14.952C69.9039 17.604 70.3806 20.1607 71.3339 22.622C72.2873 25.0833 73.6306 27.2153 75.3639 29.018V29.434H70.9699ZM81.3066 12.716H76.7566L79.6686 5.748H82.6586L81.3066 12.716ZM87.2086 12.716H82.6846L85.5966 5.748H88.5606L87.2086 12.716ZM200.295 5.748H204.845L201.933 12.716H198.943L200.295 5.748ZM206.197 5.748H210.747L207.835 12.716H204.845L206.197 5.748ZM212.151 29.434V29.018C213.885 27.2153 215.228 25.0833 216.181 22.622C217.135 20.1607 217.611 17.604 217.611 14.952C217.611 12.2827 217.117 9.69133 216.129 7.178C215.141 4.64733 213.737 2.48067 211.917 0.678V0.261999H216.285C218.071 1.89133 219.449 4.006 220.419 6.606C221.39 9.18867 221.875 11.9707 221.875 14.952C221.875 17.8987 221.407 20.646 220.471 23.194C219.535 25.742 218.227 27.822 216.545 29.434H212.151ZM228.572 13.834C227.792 13.834 227.151 13.6087 226.648 13.158C226.163 12.69 225.92 12.118 225.92 11.442C225.92 10.7487 226.163 10.168 226.648 9.7C227.151 9.232 227.792 8.998 228.572 8.998C229.335 8.998 229.959 9.232 230.444 9.7C230.947 10.168 231.198 10.7487 231.198 11.442C231.198 12.118 230.947 12.69 230.444 13.158C229.959 13.6087 229.335 13.834 228.572 13.834ZM231.146 19.892L228.26 27.354H225.426L226.934 19.892H231.146Z" fill="black"/>
<path d="M90.563 16.72C90.563 15.2293 90.8403 13.9207 91.395 12.794C91.967 11.6673 92.7383 10.8007 93.709 10.194C94.6796 9.58733 95.763 9.284 96.959 9.284C97.9123 9.284 98.779 9.48333 99.559 9.882C100.356 10.2807 100.98 10.818 101.431 11.494V4.76H105.877V24H101.431V21.92C101.015 22.6133 100.417 23.168 99.637 23.584C98.8743 24 97.9816 24.208 96.959 24.208C95.763 24.208 94.6796 23.9047 93.709 23.298C92.7383 22.674 91.967 21.7987 91.395 20.672C90.8403 19.528 90.563 18.2107 90.563 16.72ZM101.431 16.746C101.431 15.6367 101.119 14.7613 100.495 14.12C99.8883 13.4787 99.143 13.158 98.259 13.158C97.375 13.158 96.621 13.4787 95.997 14.12C95.3903 14.744 95.087 15.6107 95.087 16.72C95.087 17.8293 95.3903 18.7133 95.997 19.372C96.621 20.0133 97.375 20.334 98.259 20.334C99.143 20.334 99.8883 20.0133 100.495 19.372C101.119 18.7307 101.431 17.8553 101.431 16.746ZM122.769 16.512C122.769 16.928 122.743 17.3613 122.691 17.812H112.629C112.699 18.7133 112.985 19.4067 113.487 19.892C114.007 20.36 114.64 20.594 115.385 20.594C116.495 20.594 117.266 20.126 117.699 19.19H122.431C122.189 20.1433 121.747 21.0013 121.105 21.764C120.481 22.5267 119.693 23.1247 118.739 23.558C117.786 23.9913 116.72 24.208 115.541 24.208C114.12 24.208 112.855 23.9047 111.745 23.298C110.636 22.6913 109.769 21.8247 109.145 20.698C108.521 19.5713 108.209 18.254 108.209 16.746C108.209 15.238 108.513 13.9207 109.119 12.794C109.743 11.6673 110.61 10.8007 111.719 10.194C112.829 9.58733 114.103 9.284 115.541 9.284C116.945 9.284 118.193 9.57867 119.285 10.168C120.377 10.7573 121.227 11.598 121.833 12.69C122.457 13.782 122.769 15.056 122.769 16.512ZM118.219 15.342C118.219 14.5793 117.959 13.9727 117.439 13.522C116.919 13.0713 116.269 12.846 115.489 12.846C114.744 12.846 114.111 13.0627 113.591 13.496C113.089 13.9293 112.777 14.5447 112.655 15.342H118.219ZM131.641 19.84L134.787 9.492H139.519L134.371 24H128.885L123.737 9.492H128.495L131.641 19.84ZM155.066 16.512C155.066 16.928 155.04 17.3613 154.988 17.812H144.926C144.996 18.7133 145.282 19.4067 145.784 19.892C146.304 20.36 146.937 20.594 147.682 20.594C148.792 20.594 149.563 20.126 149.996 19.19H154.728C154.486 20.1433 154.044 21.0013 153.402 21.764C152.778 22.5267 151.99 23.1247 151.036 23.558C150.083 23.9913 149.017 24.208 147.838 24.208C146.417 24.208 145.152 23.9047 144.042 23.298C142.933 22.6913 142.066 21.8247 141.442 20.698C140.818 19.5713 140.506 18.254 140.506 16.746C140.506 15.238 140.81 13.9207 141.416 12.794C142.04 11.6673 142.907 10.8007 144.016 10.194C145.126 9.58733 146.4 9.284 147.838 9.284C149.242 9.284 150.49 9.57867 151.582 10.168C152.674 10.7573 153.524 11.598 154.13 12.69C154.754 13.782 155.066 15.056 155.066 16.512ZM150.516 15.342C150.516 14.5793 150.256 13.9727 149.736 13.522C149.216 13.0713 148.566 12.846 147.786 12.846C147.041 12.846 146.408 13.0627 145.888 13.496C145.386 13.9293 145.074 14.5447 144.952 15.342H150.516ZM161.858 4.76V24H157.412V4.76H161.858ZM171.684 24.208C170.262 24.208 168.98 23.9047 167.836 23.298C166.709 22.6913 165.816 21.8247 165.158 20.698C164.516 19.5713 164.196 18.254 164.196 16.746C164.196 15.2553 164.525 13.9467 165.184 12.82C165.842 11.676 166.744 10.8007 167.888 10.194C169.032 9.58733 170.314 9.284 171.736 9.284C173.157 9.284 174.44 9.58733 175.584 10.194C176.728 10.8007 177.629 11.676 178.288 12.82C178.946 13.9467 179.276 15.2553 179.276 16.746C179.276 18.2367 178.938 19.554 178.262 20.698C177.603 21.8247 176.693 22.6913 175.532 23.298C174.388 23.9047 173.105 24.208 171.684 24.208ZM171.684 20.36C172.533 20.36 173.252 20.048 173.842 19.424C174.448 18.8 174.752 17.9073 174.752 16.746C174.752 15.5847 174.457 14.692 173.868 14.068C173.296 13.444 172.585 13.132 171.736 13.132C170.869 13.132 170.15 13.444 169.578 14.068C169.006 14.6747 168.72 15.5673 168.72 16.746C168.72 17.9073 168.997 18.8 169.552 19.424C170.124 20.048 170.834 20.36 171.684 20.36ZM186.08 11.546C186.514 10.87 187.112 10.324 187.874 9.908C188.637 9.492 189.53 9.284 190.552 9.284C191.748 9.284 192.832 9.58733 193.802 10.194C194.773 10.8007 195.536 11.6673 196.09 12.794C196.662 13.9207 196.948 15.2293 196.948 16.72C196.948 18.2107 196.662 19.528 196.09 20.672C195.536 21.7987 194.773 22.674 193.802 23.298C192.832 23.9047 191.748 24.208 190.552 24.208C189.547 24.208 188.654 24 187.874 23.584C187.112 23.168 186.514 22.6307 186.08 21.972V30.916H181.634V9.492H186.08V11.546ZM192.424 16.72C192.424 15.6107 192.112 14.744 191.488 14.12C190.882 13.4787 190.128 13.158 189.226 13.158C188.342 13.158 187.588 13.4787 186.964 14.12C186.358 14.7613 186.054 15.6367 186.054 16.746C186.054 17.8553 186.358 18.7307 186.964 19.372C187.588 20.0133 188.342 20.334 189.226 20.334C190.11 20.334 190.864 20.0133 191.488 19.372C192.112 18.7133 192.424 17.8293 192.424 16.72Z" fill="#F09C38"/>
</svg>
